<?xml version="1.0" encoding="UTF-8"?>
<svg xmlns="http://www.w3.org/2000/svg" xmlns:xlink="http://www.w3.org/1999/xlink" width="50pt" height="50pt" viewBox="0 0 50 50" version="1.1">
<g id="surface12224583">
<path style=" stroke:none;fill-rule:nonzero;fill:rgb(18.039216%,80%,44.313725%);fill-opacity:1;" d="M 25 2 C 12.316406 2 2 12.316406 2 25 C 2 37.683594 12.316406 48 25 48 C 37.683594 48 48 37.683594 48 25 C 48 12.316406 37.683594 2 25 2 Z M 17.761719 9.027344 C 19.882812 8.871094 22.429688 9.917969 25 11.910156 C 28.425781 9.257812 31.808594 8.273438 34.199219 9.601562 C 35.394531 10.265625 36.25 11.457031 36.675781 13.042969 C 37.109375 14.660156 37.101562 16.644531 36.703125 18.832031 C 40.597656 20.273438 43 22.460938 43 25 C 43 27.539062 40.597656 29.726562 36.703125 31.167969 C 37.097656 33.355469 37.105469 35.34375 36.671875 36.960938 C 36.25 38.546875 35.394531 39.738281 34.199219 40.402344 C 33.484375 40.796875 32.675781 40.988281 31.804688 40.988281 C 29.777344 40.988281 27.394531 39.941406 24.996094 38.082031 C 22.601562 39.941406 20.21875 40.988281 18.1875 40.988281 C 17.320312 40.988281 16.515625 40.800781 15.796875 40.402344 C 14.605469 39.738281 13.75 38.546875 13.320312 36.960938 C 12.890625 35.34375 12.898438 33.355469 13.292969 31.167969 C 9.402344 29.726562 7 27.539062 7 25 C 7 22.464844 9.402344 20.273438 13.292969 18.832031 C 12.898438 16.644531 12.890625 14.660156 13.324219 13.042969 C 13.75 11.453125 14.605469 10.265625 15.796875 9.601562 C 16.394531 9.269531 17.054688 9.082031 17.761719 9.03125 Z M 18.238281 11.003906 C 17.683594 11.003906 17.1875 11.117188 16.769531 11.351562 C 16.050781 11.75 15.539062 12.492188 15.253906 13.558594 C 14.914062 14.835938 14.914062 16.433594 15.210938 18.21875 C 16.601562 17.832031 18.125 17.527344 19.765625 17.324219 C 20.953125 15.761719 22.199219 14.386719 23.460938 13.226562 C 21.5 11.765625 19.667969 11.003906 18.238281 11.003906 Z M 31.761719 11.003906 C 30.328125 11.003906 28.496094 11.765625 26.535156 13.226562 C 27.796875 14.386719 29.046875 15.761719 30.234375 17.324219 C 31.875 17.527344 33.398438 17.832031 34.785156 18.21875 C 35.085938 16.433594 35.085938 14.835938 34.742188 13.558594 C 34.457031 12.492188 33.949219 11.75 33.230469 11.347656 C 32.8125 11.117188 32.316406 11 31.757812 11 Z M 25 14.488281 C 24.171875 15.234375 23.335938 16.101562 22.503906 17.078125 C 23.320312 17.03125 24.148438 17 25 17 C 25.851562 17 26.679688 17.03125 27.496094 17.078125 C 26.664062 16.101562 25.828125 15.234375 25 14.488281 Z M 25 19 C 23.535156 19 22.144531 19.085938 20.832031 19.222656 C 20.257812 20.027344 19.695312 20.878906 19.148438 21.785156 C 18.507812 22.855469 17.9375 23.933594 17.4375 25 C 17.9375 26.070312 18.507812 27.148438 19.148438 28.214844 C 19.695312 29.125 20.261719 29.972656 20.839844 30.777344 C 22.152344 30.914062 23.535156 31 25 31 C 26.464844 31 27.847656 30.917969 29.160156 30.777344 C 29.734375 29.976562 30.304688 29.125 30.851562 28.210938 C 31.492188 27.144531 32.0625 26.070312 32.5625 25 C 32.0625 23.933594 31.492188 22.855469 30.851562 21.789062 C 30.304688 20.878906 29.742188 20.027344 29.167969 19.222656 C 27.855469 19.085938 26.464844 19 25 19 Z M 18.160156 19.613281 C 17.269531 19.777344 16.425781 19.972656 15.648438 20.195312 C 15.855469 20.96875 16.113281 21.761719 16.414062 22.570312 C 16.734375 21.964844 17.070312 21.363281 17.433594 20.757812 C 17.667969 20.367188 17.914062 19.988281 18.160156 19.609375 Z M 31.839844 19.613281 C 32.085938 19.988281 32.332031 20.367188 32.566406 20.761719 C 32.929688 21.363281 33.261719 21.964844 33.582031 22.570312 C 33.882812 21.761719 34.144531 20.96875 34.351562 20.195312 C 33.574219 19.972656 32.730469 19.777344 31.839844 19.613281 Z M 13.746094 20.832031 C 10.757812 21.988281 9 23.535156 9 25 C 9 26.464844 10.761719 28.011719 13.75 29.167969 C 14.117188 27.820312 14.617188 26.425781 15.238281 25.003906 C 14.617188 23.578125 14.117188 22.179688 13.75 20.832031 Z M 36.25 20.832031 C 35.882812 22.179688 35.386719 23.578125 34.761719 25.003906 C 35.382812 26.425781 35.878906 27.824219 36.246094 29.171875 C 39.238281 28.011719 41 26.464844 41 25 C 41 23.535156 39.238281 21.988281 36.25 20.832031 Z M 25 23 C 26.105469 23 27 23.894531 27 25 C 27 26.105469 26.105469 27 25 27 C 23.894531 27 23 26.105469 23 25 C 23 23.894531 23.894531 23 25 23 Z M 16.417969 27.429688 C 16.113281 28.238281 15.855469 29.03125 15.648438 29.804688 C 16.425781 30.027344 17.261719 30.222656 18.152344 30.386719 C 17.90625 30.011719 17.667969 29.632812 17.433594 29.242188 C 17.070312 28.640625 16.734375 28.035156 16.417969 27.429688 Z M 33.582031 27.429688 C 33.265625 28.035156 32.925781 28.640625 32.566406 29.242188 C 32.332031 29.632812 32.09375 30.011719 31.847656 30.386719 C 32.734375 30.222656 33.574219 30.027344 34.351562 29.804688 C 34.144531 29.035156 33.882812 28.238281 33.582031 27.429688 Z M 15.214844 31.78125 C 14.914062 33.566406 14.914062 35.167969 15.257812 36.441406 C 15.542969 37.507812 16.050781 38.253906 16.769531 38.652344 C 18.261719 39.480469 20.730469 38.796875 23.453125 36.773438 C 22.191406 35.613281 20.945312 34.238281 19.761719 32.675781 C 18.121094 32.472656 16.601562 32.167969 15.214844 31.78125 Z M 34.785156 31.78125 C 33.398438 32.167969 31.875 32.472656 30.238281 32.675781 C 29.050781 34.238281 27.808594 35.613281 26.542969 36.773438 C 29.265625 38.796875 31.738281 39.480469 33.230469 38.652344 C 33.949219 38.253906 34.457031 37.507812 34.742188 36.441406 C 35.085938 35.167969 35.085938 33.566406 34.785156 31.78125 Z M 22.511719 32.921875 C 23.339844 33.894531 24.171875 34.769531 24.996094 35.511719 C 25.824219 34.769531 26.660156 33.894531 27.484375 32.921875 C 26.671875 32.96875 25.847656 33 25 33 C 24.152344 33 23.324219 32.96875 22.511719 32.921875 Z M 22.511719 32.921875 "/>
</g>
</svg>
