<?xml version="1.0" standalone="no"?>
<!DOCTYPE svg PUBLIC "-//W3C//DTD SVG 20010904//EN"
 "http://www.w3.org/TR/2001/REC-SVG-20010904/DTD/svg10.dtd">
<svg version="1.0" xmlns="http://www.w3.org/2000/svg"
 width="544.000000pt" height="472.000000pt" viewBox="0 0 544.000000 472.000000"
 preserveAspectRatio="xMidYMid meet">
<metadata>
Created by potrace 1.16, written by Peter Selinger 2001-2019
</metadata>
<g transform="translate(0.000000,472.000000) scale(0.100000,-0.100000)"
fill="#000000" stroke="none">
<path d="M0 2360 l0 -2360 2720 0 2720 0 0 2360 0 2360 -2720 0 -2720 0 0
-2360z m2100 1725 c177 -34 373 -134 554 -282 32 -26 69 -57 83 -68 23 -19 44
-20 481 -26 381 -4 468 -8 523 -22 247 -63 398 -170 484 -343 58 -118 84 -281
65 -418 -21 -151 -69 -253 -170 -358 -51 -53 -60 -72 -37 -81 6 -2 40 -26 74
-51 114 -86 193 -222 228 -392 22 -104 17 -335 -9 -409 -43 -126 -93 -209
-173 -286 -109 -106 -207 -159 -378 -208 -156 -44 -170 -45 -627 -50 l-447 -6
-53 -51 c-70 -68 -156 -131 -264 -197 -319 -192 -562 -207 -739 -45 -65 59
-125 175 -152 293 -24 107 -24 379 0 514 10 52 14 98 10 102 -5 5 -53 27 -108
49 -284 115 -495 281 -582 456 -37 76 -38 81 -38 184 0 103 1 108 38 183 48
97 146 199 267 279 108 70 164 99 309 155 64 25 119 50 122 55 3 5 -1 48 -9
96 -24 133 -23 486 1 572 30 107 75 190 136 250 108 108 234 140 411 105z"/>
<path d="M1945 3773 c-95 -23 -139 -247 -100 -508 8 -55 21 -105 29 -113 11
-12 26 -11 97 1 46 9 126 21 177 28 107 14 87 -1 233 183 83 103 100 131 92
145 -15 24 -168 137 -242 179 -109 61 -232 97 -286 85z"/>
<path d="M2925 3328 c-3 -13 -4 -165 -3 -338 l3 -315 325 -3 c350 -3 405 2
497 46 120 57 173 138 181 273 12 210 -67 316 -258 348 -42 7 -200 11 -404 11
l-336 0 -5 -22z"/>
<path d="M2561 3038 c-101 -159 -196 -325 -308 -535 l-54 -101 18 -44 c26 -65
230 -465 314 -614 31 -57 44 -79 47 -84 2 -2 7 2 12 10 11 16 14 1348 4 1374
-8 22 -17 20 -33 -6z"/>
<path d="M1948 2857 c-41 -11 -46 -26 -27 -74 21 -51 27 -68 33 -85 5 -17 36
-15 36 1 0 4 20 40 45 81 24 41 45 78 45 83 0 10 -88 6 -132 -6z"/>
<path d="M1600 2734 c-8 -3 -26 -10 -40 -16 -14 -6 -34 -14 -45 -18 -115 -43
-257 -130 -326 -201 -81 -83 -81 -131 -1 -215 78 -82 222 -171 357 -221 22 -8
50 -20 63 -26 29 -14 34 -7 66 81 14 41 45 119 67 174 l41 100 -69 171 c-67
168 -77 183 -113 171z"/>
<path d="M2925 2248 c-3 -13 -4 -201 -3 -418 l3 -395 350 -3 c456 -4 503 5
616 118 67 66 97 138 105 249 14 193 -59 352 -194 422 -84 42 -145 48 -519 49
l-353 0 -5 -22z"/>
<path d="M1950 2045 c-28 -65 -44 -124 -36 -132 9 -10 179 -42 189 -36 14 8
-105 213 -123 213 -6 0 -19 -20 -30 -45z"/>
<path d="M1865 1621 c-9 -16 -26 -149 -32 -260 -9 -160 25 -308 80 -346 45
-32 165 -12 282 47 70 36 215 133 264 178 l33 31 -26 32 c-15 18 -61 77 -104
131 -42 55 -84 108 -92 119 -13 15 -51 25 -185 48 -187 31 -211 33 -220 20z"/>
</g>
</svg>
