<?xml version="1.0" encoding="UTF-8"?>
<svg xmlns="http://www.w3.org/2000/svg" xmlns:xlink="http://www.w3.org/1999/xlink" width="40pt" height="40pt" viewBox="0 0 40 40" version="1.1">
<g id="surface12228043">
<path style=" stroke:none;fill-rule:nonzero;fill:rgb(84.313725%,62.745098%,6.666667%);fill-opacity:1;" d="M 5 18.75 C 5 11.894531 8.691406 5.914062 14.183594 2.644531 C 6.1875 3.664062 0 10.476562 0 18.75 C 0 27.023438 6.1875 33.835938 14.183594 34.855469 C 8.691406 31.585938 5 25.605469 5 18.75 Z M 5 18.75 "/>
<path style=" stroke:none;fill-rule:nonzero;fill:rgb(7.45098%,3.921569%,41.176471%);fill-opacity:1;" d="M 38.75 12.5 C 36.300781 6.628906 30.507812 2.5 23.75 2.5 C 16.992188 2.5 11.199219 6.628906 8.75 12.5 Z M 38.75 12.5 "/>
<path style=" stroke:none;fill-rule:nonzero;fill:rgb(7.45098%,3.921569%,41.176471%);fill-opacity:1;" d="M 7.953125 15 C 7.761719 15.8125 7.628906 16.644531 7.5625 17.5 L 39.933594 17.5 C 39.871094 16.644531 39.738281 15.8125 39.546875 15 Z M 7.953125 15 "/>
<path style=" stroke:none;fill-rule:nonzero;fill:rgb(7.45098%,3.921569%,41.176471%);fill-opacity:1;" d="M 39.546875 22.5 C 39.738281 21.6875 39.871094 20.855469 39.9375 20 L 7.5625 20 C 7.628906 20.855469 7.761719 21.6875 7.953125 22.5 Z M 39.546875 22.5 "/>
<path style=" stroke:none;fill-rule:nonzero;fill:rgb(7.45098%,3.921569%,41.176471%);fill-opacity:1;" d="M 8.75 25 C 11.199219 30.871094 16.992188 35 23.75 35 C 30.507812 35 36.300781 30.871094 38.75 25 Z M 8.75 25 "/>
<path style=" stroke:none;fill-rule:nonzero;fill:rgb(54.509804%,71.764706%,94.117647%);fill-opacity:1;" d="M 14.398438 25 C 16.417969 28.011719 19.851562 30 23.75 30 C 27.648438 30 31.082031 28.011719 33.101562 25 Z M 14.398438 25 "/>
</g>
</svg>
